  0
SECTION
  2
HEADER
  9
$LIMMIN
 10
0
 20
0
  9
$LIMMAX
 10
297
 20
210
  9
$EXTMIN
 10
79.5
 20
9
  9
$EXTMAX
 10
247.5
 20
108
  0
ENDSEC
  0
SECTION
  2
TABLES
  0
TABLE
  2
LTYPE
 70
9
  0
LTYPE
  2
AUSGEZOGEN
 70
64
  3
Ausgezogene Linie
 72
65
 73
0
 40
0.0
  0
LTYPE
  2
GESTRICHELT
 70
0
  3
__ __ __ __ __ __ __ __ __ __ __ __ __ __ __
 72
65
 73
2
 40
3
 49
2
 49
-1
  0
LTYPE
  2
STRICHPUNKTIERT
 70
0
  3
__ . __ . __ . __ . __ . __ . __ . __ . __ .
 72
65
 73
4
 40
8
 49
4
 49
-2
 49
0
 49
-2
  0
ENDTAB
  0
TABLE
  2
LAYER
 70
10
  0
LAYER
  2
1
 70
0
 62
7
  6
AUSGEZOGEN
  0
LAYER
  2
LINES
 70
0
 62
7
  6
AUSGEZOGEN
  0
LAYER
  2
CONNECTIONS
 70
0
 62
-7
  6
AUSGEZOGEN
  0
LAYER
  2
TEXT
 70
0
 62
7
  6
AUSGEZOGEN
  0
LAYER
  2
TCONNECTIONS
 70
0
 62
7
  6
AUSGEZOGEN
  0
ENDTAB
  0
ENDSEC
  0
SECTION
  2
BLOCKS
  0
BLOCK
  8
0
  2
SK_SG77
 70
0
 10
0
 20
0
  0
LINE
  8
1
 62
7
 10
0.375
 20
-0.5625
 11
0.375
 21
-3.1875
  0
LINE
  8
1
 62
7
 10
1.5
 20
-0.5625
 11
1.5
 21
-3.1875
  0
LINE
  8
1
 62
7
 10
0.9375
 20
0
 11
0
 21
-0.9375
  0
LINE
  8
1
 62
7
 10
0.9375
 20
0
 11
1.875
 21
-0.9375
  0
ENDBLK
  8
0
  0
BLOCK
  8
0
  2
PAL2DXF
 70
0
 10
0
 20
0
  0
LINE
  8
1
 62
7
 10
0
 20
1.5
 11
0
 21
0
  0
LINE
  8
1
 62
7
 10
13.5
 20
1.5
 11
13.5
 21
0
  0
LINE
  8
1
 62
7
 10
0.75
 20
7.5
 11
0.75
 21
1.5
  0
LINE
  8
1
 62
7
 10
2.25
 20
7.5
 11
2.25
 21
1.5
  0
LINE
  8
1
 62
7
 10
4.11767578125
 20
9.00073242188
 11
-1.5
 21
0.75
  0
LINE
  8
1
 62
7
 10
-1.5
 20
1.5
 11
15
 21
1.5
  0
LINE
  8
1
 62
7
 10
-1.5
 20
7.5
 11
15
 21
7.5
  0
LINE
  8
1
 62
7
 10
-1.5
 20
7.5
 11
-1.5
 21
1.5
  0
LINE
  8
1
 62
7
 10
15
 20
3.75
 11
15
 21
1.5
  0
LINE
  8
1
 62
7
 10
15
 20
7.5
 11
15
 21
5.25
  0
LINE
  8
1
 62
7
 10
3
 20
3.75
 11
18
 21
3.75
  0
LINE
  8
1
 62
7
 10
3
 20
5.25
 11
18
 21
5.25
  0
SOLID
  8
1
 62
7
 10
4.11767578125
 20
9.00073242188
 11
3.8291015625
 21
7.791015625
 12
3.04418945313
 22
8.23095703125
 13
3.04418945313
 23
8.23095703125
  0
LINE
  8
1
 62
7
 10
4.11767578125
 20
9.00073242188
 11
3.04418945313
 21
8.23095703125
  0
LINE
  8
1
 62
7
 10
4.11767578125
 20
9.00073242188
 11
3.8291015625
 21
7.791015625
  0
LINE
  8
1
 62
7
 10
0
 20
6
 11
0
 21
3
  0
LINE
  8
1
 62
7
 10
0
 20
3
 11
0.75
 21
3
  0
LINE
  8
1
 62
7
 10
0
 20
6
 11
0.75
 21
6
  0
LINE
  8
1
 62
7
 10
3
 20
6
 11
3
 21
3
  0
LINE
  8
1
 62
7
 10
2.25
 20
3
 11
3
 21
3
  0
LINE
  8
1
 62
7
 10
2.25
 20
6
 11
3
 21
6
  0
ENDBLK
  8
0
  0
BLOCK
  8
0
  2
PBV147
 70
0
 10
0
 20
0
  0
LINE
  8
1
 62
7
 10
0.375
 20
6.51806640625
 11
-4.125
 21
4.26806640625
  0
LINE
  8
1
 62
7
 10
0.375
 20
3.51806640625
 11
-4.125
 21
1.26806640625
  0
LINE
  8
1
 62
7
 10
0.375
 20
2.01806640625
 11
-4.125
 21
-0.231689453125
  0
LINE
  8
1
 62
7
 10
0.375
 20
0.51806640625
 11
-4.125
 21
-1.73168945313
  0
LINE
  8
1
 62
7
 10
0.375
 20
5.01806640625
 11
-4.125
 21
2.76806640625
  0
LINE
  8
1
 62
7
 10
-2.625
 20
-2.48168945313
 11
-4.125
 21
-3.23168945313
  0
LINE
  8
1
 62
7
 10
-2.625
 20
-3.98168945313
 11
-4.125
 21
-4.73168945313
  0
LINE
  8
1
 62
7
 10
-1.125
 20
7.26806640625
 11
-4.125
 21
5.76806640625
  0
LINE
  8
1
 62
7
 10
-3.375
 20
7.26806640625
 11
-4.13232421875
 21
6.88940429688
  0
LINE
  8
1
 62
7
 10
0.375
 20
7.26806640625
 11
0.375
 21
0
  0
LINE
  8
1
 62
7
 10
0.167724609375
 20
-0.33544921875
 11
-2.41772460938
 21
-1.6279296875
  0
LINE
  8
1
 62
7
 10
-2.625
 20
-1.96337890625
 11
-2.625
 21
-4.73168945313
  0
ARC
  8
1
 62
7
 10
-2.25
 20
-1.96337890625
 40
0.375
 50
116
 51
180
  0
ARC
  8
1
 62
7
 10
0
 20
0
 40
0.375
 50
296
 51
360
  0
ENDBLK
  8
0
  0
BLOCK
  8
0
  2
PBV147R
 70
0
 10
0
 20
0
  0
LINE
  8
1
 62
7
 10
3.0029296875
 20
-9.24096679688
 11
3.0029296875
 21
-12.0119628906
  0
LINE
  8
1
 62
7
 10
3.0029296875
 20
-11.2612304688
 11
4.50439453125
 21
-12.0119628906
  0
LINE
  8
1
 62
7
 10
3.75366210938
 20
0
 11
4.51196289063
 21
-0.379150390625
  0
LINE
  8
1
 62
7
 10
1.50146484375
 20
0
 11
4.50439453125
 21
-1.50146484375
  0
ARC
  8
1
 62
7
 10
0.375244140625
 20
-7.275390625
 40
0.37548828125
 50
180
 51
243
  0
ARC
  8
1
 62
7
 10
2.62744140625
 20
-9.24096679688
 40
0.37548828125
 50
360
 51
423
  0
LINE
  8
1
 62
7
 10
3.0029296875
 20
-9.75952148438
 11
4.50439453125
 21
-10.5104980469
  0
LINE
  8
1
 62
7
 10
0
 20
-2.25219726563
 11
4.50439453125
 21
-4.50439453125
  0
LINE
  8
1
 62
7
 10
0.207275390625
 20
-7.61108398438
 11
2.79541015625
 21
-8.90502929688
  0
LINE
  8
1
 62
7
 10
0
 20
-6.75659179688
 11
4.50439453125
 21
-9.0087890625
  0
LINE
  8
1
 62
7
 10
0
 20
-5.25512695313
 11
4.50439453125
 21
-7.50732421875
  0
LINE
  8
1
 62
7
 10
0
 20
-3.75366210938
 11
4.50439453125
 21
-6.005859375
  0
LINE
  8
1
 62
7
 10
0
 20
-0.750732421875
 11
4.50439453125
 21
-3.0029296875
  0
LINE
  8
1
 62
7
 10
0
 20
0
 11
0
 21
-7.275390625
  0
ENDBLK
  8
0
  0
BLOCK
  8
0
  2
PRV
 70
0
 10
0
 20
0
  0
LINE
  8
1
 62
7
 10
0
 20
0
 11
3
 21
0
  0
LINE
  8
1
 62
7
  6
STRICHPUNKTIERT
 10
1.5
 20
12
 11
1.5
 21
-7.5
  0
LINE
  8
1
 62
7
  6
STRICHPUNKTIERT
 10
1.5
 20
-7.5
 11
31.5
 21
-7.5
  0
LINE
  8
1
 62
7
  6
STRICHPUNKTIERT
 10
31.5
 20
12
 11
31.5
 21
-7.5
  0
LINE
  8
1
 62
7
 10
22.5
 20
1.5
 11
33
 21
1.5
  0
LINE
  8
1
 62
7
  6
STRICHPUNKTIERT
 10
1.5
 20
12
 11
31.5
 21
12
  0
LINE
  8
1
 62
7
 10
7.5
 20
4.5
 11
3
 21
0
  0
LINE
  8
1
 62
7
 10
4.5
 20
-1.5
 11
10.5
 21
-1.5
  0
LINE
  8
1
 62
7
 10
3
 20
0
 11
7.5
 21
-4.5
  0
LINE
  8
1
 62
7
  6
GESTRICHELT
 10
19.5
 20
-4.5
 11
26.25
 21
-4.5
  0
LINE
  8
1
 62
7
 10
21.537109375
 20
5.07470703125
 11
19.5
 21
4.5
  0
LINE
  8
1
 62
7
 10
16.5
 20
-1.5
 11
22.5
 21
-1.5
  0
LINE
  8
1
 62
7
 10
16.5
 20
4.5
 11
22.5
 21
4.5
  0
LINE
  8
1
 62
7
 10
23.25
 20
8.25
 11
17.25
 21
6.75
  0
LINE
  8
1
 62
7
 10
21.537109375
 20
8.83764648438
 11
18.1079101563
 21
8.02709960938
  0
LINE
  8
1
 62
7
 10
18.1079101563
 20
5.88500976563
 11
21.537109375
 21
5.07470703125
  0
LINE
  8
1
 62
7
 10
21.537109375
 20
6.94653320313
 11
18.1079101563
 21
5.88500976563
  0
LINE
  8
1
 62
7
 10
18.1079101563
 20
8.02709960938
 11
21.537109375
 21
6.94653320313
  0
LINE
  8
1
 62
7
 10
19.5
 20
11.25
 11
21.537109375
 21
10.7097167969
  0
LINE
  8
1
 62
7
 10
18.1079101563
 20
9.89916992188
 11
21.537109375
 21
8.83764648438
  0
LINE
  8
1
 62
7
 10
21.537109375
 20
10.7097167969
 11
18.1079101563
 21
9.89916992188
  0
LINE
  8
1
 62
7
 10
7.5
 20
4.5
 11
12
 21
0
  0
LINE
  8
1
 62
7
  6
GESTRICHELT
 10
7.5
 20
4.5
 11
7.5
 21
-1.5
  0
LINE
  8
1
 62
7
 10
16.5
 20
4.5
 11
16.5
 21
-1.5
  0
LINE
  8
1
 62
7
 10
12
 20
0
 11
7.5
 21
-4.5
  0
LINE
  8
1
 62
7
 10
7.5
 20
-4.5
 11
7.5
 21
-6
  0
LINE
  8
1
 62
7
 10
13.5
 20
0
 11
16.5
 21
0
  0
LINE
  8
1
 62
7
 10
12
 20
0
 11
13.5
 21
0
  0
LINE
  8
1
 62
7
  6
GESTRICHELT
 10
19.5
 20
-1.5
 11
19.5
 21
-4.5
  0
LINE
  8
1
 62
7
 10
16.5
 20
3.9375
 11
15
 21
3
  0
LINE
  8
1
 62
7
 10
15
 20
3
 11
16.5
 21
2.0625
  0
LINE
  8
1
 62
7
 10
16.5
 20
3.9375
 11
16.5
 21
2.0625
  0
LINE
  8
1
 62
7
 10
22.5
 20
4.5
 11
22.5
 21
-1.5
  0
CIRCLE
  8
1
 62
7
 10
27.75
 20
1.5
 40
0.375
  0
CIRCLE
  8
1
 62
7
 10
27.75
 20
1.5
 40
0.375
  0
LINE
  8
1
 62
7
 10
27.75
 20
5.09985351563
 11
27.75
 21
1.5
  0
LINE
  8
1
 62
7
 10
28.125
 20
1.5
 11
27.375
 21
1.5
  0
LINE
  8
1
 62
7
 10
28.125
 20
1.5
 11
27.375
 21
1.5
  0
LINE
  8
1
 62
7
  6
GESTRICHELT
 10
26.25
 20
-1.5
 11
26.25
 21
-4.5
  0
LINE
  8
1
 62
7
  6
GESTRICHELT
 10
22.5
 20
1.5
 11
26.25
 21
-1.5
  0
CIRCLE
  8
1
 62
7
 10
27.75
 20
7.19995117188
 40
2.09985351563
  0
LINE
  8
1
 62
7
 10
29.1574707031
 20
8.75830078125
 11
26.2238769531
 21
5.75708007813
  0
LINE
  8
1
 62
7
 10
23.25
 20
8.25
 11
21.5766601563
 21
8.18383789063
  0
LINE
  8
1
 62
7
 10
23.25
 20
8.25
 11
21.75
 21
7.5
  0
SOLID
  8
1
 62
7
 10
21.75
 20
7.5
 11
23.25
 21
8.25
 12
21.5766601563
 22
8.18383789063
 13
21.5766601563
 23
8.18383789063
  0
LINE
  8
1
 62
7
 10
21.5766601563
 20
8.18383789063
 11
21.75
 21
7.5
  0
LINE
  8
1
 62
7
 10
29.1574707031
 20
8.75830078125
 11
28.1394042969
 21
8.22485351563
  0
SOLID
  8
1
 62
7
 10
28.5373535156
 20
7.72485351563
 11
28.1394042969
 21
8.22485351563
 12
29.1574707031
 22
8.75830078125
 13
29.1574707031
 23
8.75830078125
  0
LINE
  8
1
 62
7
 10
28.1394042969
 20
8.22485351563
 11
28.5944824219
 21
7.740234375
  0
LINE
  8
1
 62
7
 10
29.1574707031
 20
8.75830078125
 11
28.5944824219
 21
7.740234375
  0
POLYLINE
  8
1
 62
7
 70
1
 66
1
 40
0.375
 41
0.375
  0
VERTEX
  8
1
 10
27.5625
 20
1.5
 42
1
  0
VERTEX
  8
1
 10
27.9375
 20
1.5
 42
1
  0
SEQEND
  8
1
  0
LINE
  8
1
 62
7
 10
16.5
 20
0
 11
22.5
 21
0
  0
SOLID
  8
1
 62
7
 10
16.5
 20
0
 11
18
 21
-0.375
 12
18
 22
0.375
 13
18
 23
0.375
  0
SOLID
  8
1
 62
7
 10
22.5
 20
0
 11
21
 21
-0.375
 12
21
 22
0.375
 13
21
 23
0.375
  0
ENDBLK
  8
0
  0
BLOCK
  8
TCONNECTIONS
  2
TRICON
 70
0
 10
0
 20
0
  0
POLYLINE
  8
TCONNECTIONS
 62
7
 70
1
 66
1
 40
0.375
 41
0.375
  0
VERTEX
  8
TCONNECTIONS
 10
-1.4375
 20
1.25
 42
1
  0
VERTEX
  8
TCONNECTIONS
 10
-1.0625
 20
1.25
 42
1
  0
SEQEND
  8
0
  0
ENDBLK
  8
0
  0
BLOCK
  8
0
  2
PPE1
 70
0
 10
0
 20
0
  0
LINE
  8
1
 62
7
 10
-1.5
 20
-3
 11
1.5
 21
-3
  0
LINE
  8
1
 62
7
 10
0
 20
-0.75
 11
1.5
 21
-3
  0
LINE
  8
1
 62
7
 10
0
 20
-0.75
 11
-1.5
 21
-3
  0
LINE
  8
1
 62
7
 10
0
 20
-0.75
 11
-1.5
 21
-3
  0
LINE
  8
1
 62
7
 10
0
 20
0
 11
0
 21
-0.75
  0
ENDBLK
  8
0
  0
BLOCK
  8
0
  2
R_SCHALT
 70
0
 10
0
 20
0
  0
LINE
  8
1
 62
7
 10
0
 20
0
 11
15
 21
0
  0
LINE
  8
1
 62
7
 10
15
 20
0
 11
15
 21
-2.5
  0
LINE
  8
1
 62
7
 10
15
 20
-2.5
 11
0
 21
-2.5
  0
LINE
  8
1
 62
7
 10
0
 20
0
 11
0
 21
-2.5
  0
LINE
  8
1
 62
7
 10
1.25
 20
0
 11
1.25
 21
-2.5
  0
LINE
  8
1
 62
7
 10
2.5
 20
0
 11
2.5
 21
-2.5
  0
LINE
  8
1
 62
7
 10
3.75
 20
0
 11
3.75
 21
-2.5
  0
LINE
  8
1
 62
7
 10
5
 20
0
 11
5
 21
-2.5
  0
LINE
  8
1
 62
7
 10
6.25
 20
0
 11
6.25
 21
-2.5
  0
LINE
  8
1
 62
7
 10
7.5
 20
0
 11
7.5
 21
-2.5
  0
LINE
  8
1
 62
7
 10
8.75
 20
0
 11
8.75
 21
-2.5
  0
LINE
  8
1
 62
7
 10
10
 20
0
 11
10
 21
-2.5
  0
LINE
  8
1
 62
7
 10
11.25
 20
0
 11
11.25
 21
-2.5
  0
LINE
  8
1
 62
7
 10
12.5
 20
0
 11
12.5
 21
-2.5
  0
LINE
  8
1
 62
7
 10
13.75
 20
0
 11
13.75
 21
-2.5
  0
ENDBLK
  8
0
  0
BLOCK
  8
0
  2
PSW1
 70
0
 10
0
 20
0
  0
LINE
  8
1
 62
7
 10
0
 20
0
 11
1.5
 21
0
  0
LINE
  8
1
 62
7
 10
7.5
 20
3
 11
1.5
 21
-3
  0
LINE
  8
1
 62
7
 10
1.5
 20
-3
 11
7.5
 21
-3
  0
LINE
  8
1
 62
7
 10
1.5
 20
3
 11
7.5
 21
3
  0
LINE
  8
1
 62
7
 10
1.5
 20
3
 11
1.5
 21
-3
  0
LINE
  8
1
 62
7
 10
1.5
 20
0.599853515625
 11
3
 21
0
  0
LINE
  8
1
 62
7
 10
3
 20
0
 11
1.5
 21
-0.599853515625
  0
LINE
  8
1
 62
7
 10
6
 20
-0.5625
 11
6.5625
 21
-1.875
  0
LINE
  8
1
 62
7
 10
6.5625
 20
-1.875
 11
6.5625
 21
-2.625
  0
LINE
  8
1
 62
7
 10
5.625
 20
0.1875
 11
5.625
 21
-0.75
  0
LINE
  8
1
 62
7
 10
6.5625
 20
0.1875
 11
6.5625
 21
-0.75
  0
LINE
  8
1
 62
7
 10
5.625
 20
-0.75
 11
6.1875
 21
-0.75
  0
LINE
  8
1
 62
7
 10
7.5
 20
3
 11
7.5
 21
-3
  0
LINE
  8
1
 62
7
 10
12
 20
2.59790039063
 11
9
 21
-2.59790039063
  0
LINE
  8
1
 62
7
 10
12.375
 20
1.5
 11
12.75
 21
0
  0
LINE
  8
1
 62
7
 10
7.875
 20
1.5
 11
7.5
 21
0
  0
LINE
  8
1
 62
7
 10
12.375
 20
1.5
 11
11.625
 21
-1.5
  0
LINE
  8
1
 62
7
 10
10.875
 20
1.5
 11
11.625
 21
-1.5
  0
LINE
  8
1
 62
7
 10
10.875
 20
1.5
 11
10.125
 21
-1.5
  0
LINE
  8
1
 62
7
 10
9.375
 20
1.5
 11
10.125
 21
-1.5
  0
LINE
  8
1
 62
7
 10
9.375
 20
1.5
 11
8.625
 21
-1.5
  0
LINE
  8
1
 62
7
 10
7.875
 20
1.5
 11
8.625
 21
-1.5
  0
SOLID
  8
1
 62
7
 10
12
 20
2.59790039063
 11
11.3999023438
 21
1.55859375
 12
11.6596679688
 22
1.40869140625
 13
11.6596679688
 23
1.40869140625
  0
LINE
  8
1
 62
7
 10
12
 20
2.59790039063
 11
11.1401367188
 21
1.70874023438
  0
SOLID
  8
1
 62
7
 10
12
 20
2.59790039063
 11
11.1401367188
 21
1.70874023438
 12
11.3999023438
 22
1.55859375
 13
11.3999023438
 23
1.55859375
  0
LINE
  8
1
 62
7
 10
12
 20
2.59790039063
 11
11.6596679688
 21
1.40869140625
  0
LINE
  8
1
 62
7
 10
11.1401367188
 20
1.70874023438
 11
11.6596679688
 21
1.40869140625
  0
ENDBLK
  8
0
  0
BLOCK
  8
0
  2
0002O0
 70
0
 10
0
 20
0
  0
ENDBLK
  8
0
  0
BLOCK
  8
0
  2
0002O3
 70
0
 10
0
 20
0
  0
ENDBLK
  8
0
  0
BLOCK
  8
0
  2
0002O6
 70
0
 10
0
 20
0
  0
LINE
  8
1
 62
7
 10
-9.625
 20
-2
 11
-9.625
 21
-4
  0
ARC
  8
1
 62
7
 10
-8.875
 20
-3
 40
1.25
 50
126
 51
233
  0
LINE
  8
1
 62
7
 10
-9.625
 20
-2.625
 11
-7.5
 21
-2.625
  0
LINE
  8
1
 62
7
 10
-9.625
 20
-3.375
 11
-7.5
 21
-3.375
  0
LINE
  8
1
 62
7
 10
-10.4721679688
 20
-7.5
 11
-10.4721679688
 21
-4.5
  0
LINE
  8
1
 62
7
 10
-7.47216796875
 20
-4.5
 11
-10.4721679688
 21
-4.5
  0
LINE
  8
1
 62
7
 10
-10.4721679688
 20
-7.5
 11
-7.47216796875
 21
-7.5
  0
LINE
  8
1
 62
7
 10
-7.97216796875
 20
-4.5
 11
-9.97216796875
 21
-7.5
  0
LINE
  8
1
 62
7
 10
-7.5
 20
-1.5
 11
-7.5
 21
-7.5
  0
LINE
  8
1
 62
7
 10
-3
 20
-1.5
 11
-3
 21
-7.5
  0
LINE
  8
1
 62
7
 10
-6
 20
-1.5
 11
-4.5
 21
-7.5
  0
LINE
  8
1
 62
7
 10
-1.5
 20
-7.5
 11
-1.5
 21
-1.5
  0
LINE
  8
1
 62
7
 10
-7.5
 20
-7.5
 11
-1.5
 21
-7.5
  0
SOLID
  8
1
 62
7
 10
-3
 20
-7.5
 11
-2.5
 21
-5.5
 12
-3.5
 22
-5.5
 13
-3.5
 23
-5.5
  0
LINE
  8
1
 62
7
 10
-6.5
 20
-6
 11
-5.5
 21
-6
  0
LINE
  8
1
 62
7
 10
-6
 20
-6
 11
-6
 21
-7.5
  0
LINE
  8
1
 62
7
 10
-1.5
 20
-1.5
 11
-7.5
 21
-1.5
  0
SOLID
  8
1
 62
7
 10
-6
 20
-1.5
 11
-6.05102539063
 21
-3.55908203125
 12
-5.0810546875
 22
-3.34814453125
 13
-5.0810546875
 23
-3.34814453125
  0
LINE
  8
1
 62
7
 10
4.5
 20
-1.5
 11
4.5
 21
-7.5
  0
LINE
  8
1
 62
7
 10
-1.5
 20
-7.5
 11
-1.5
 21
-1.5
  0
LINE
  8
1
 62
7
 10
0
 20
-1.5
 11
0
 21
-7.5
  0
LINE
  8
1
 62
7
 10
3
 20
-1.5
 11
1.5
 21
-7.5
  0
LINE
  8
1
 62
7
 10
4.5
 20
-7.5
 11
-1.5
 21
-7.5
  0
SOLID
  8
1
 62
7
 10
0
 20
-7.5
 11
-0.5
 21
-5.5
 12
0.5
 22
-5.5
 13
0.5
 23
-5.5
  0
LINE
  8
1
 62
7
 10
3.5
 20
-6
 11
2.5
 21
-6
  0
LINE
  8
1
 62
7
 10
3
 20
-6
 11
3
 21
-7.5
  0
LINE
  8
1
 62
7
 10
-1.5
 20
-1.5
 11
4.5
 21
-1.5
  0
SOLID
  8
1
 62
7
 10
3
 20
-1.5
 11
3.05078125
 21
-3.55908203125
 12
2.08081054688
 22
-3.34814453125
 13
2.08081054688
 23
-3.34814453125
  0
LINE
  8
1
 62
7
 10
6.625
 20
-2
 11
6.625
 21
-4
  0
ARC
  8
1
 62
7
 10
5.875
 20
-3
 40
1.25
 50
306
 51
53
  0
LINE
  8
1
 62
7
 10
6.625
 20
-2.625
 11
4.5
 21
-2.625
  0
LINE
  8
1
 62
7
 10
6.625
 20
-3.375
 11
4.5
 21
-3.375
  0
LINE
  8
1
 62
7
 10
7.5
 20
-7.5
 11
7.5
 21
-4.5
  0
LINE
  8
1
 62
7
 10
4.5
 20
-4.5
 11
7.5
 21
-4.5
  0
LINE
  8
1
 62
7
 10
7.5
 20
-7.5
 11
4.5
 21
-7.5
  0
LINE
  8
1
 62
7
 10
5
 20
-4.5
 11
7
 21
-7.5
  0
ENDBLK
  8
0
  0
BLOCK
  8
0
  2
0002O18
 70
0
 10
0
 20
0
  0
LINE
  8
1
 62
7
 10
-9.625
 20
-2
 11
-9.625
 21
-4
  0
ARC
  8
1
 62
7
 10
-8.875
 20
-3
 40
1.25
 50
126
 51
233
  0
LINE
  8
1
 62
7
 10
-9.625
 20
-2.625
 11
-7.5
 21
-2.625
  0
LINE
  8
1
 62
7
 10
-9.625
 20
-3.375
 11
-7.5
 21
-3.375
  0
LINE
  8
1
 62
7
 10
-10.4721679688
 20
-7.5
 11
-10.4721679688
 21
-4.5
  0
LINE
  8
1
 62
7
 10
-7.47216796875
 20
-4.5
 11
-10.4721679688
 21
-4.5
  0
LINE
  8
1
 62
7
 10
-10.4721679688
 20
-7.5
 11
-7.47216796875
 21
-7.5
  0
LINE
  8
1
 62
7
 10
-7.97216796875
 20
-4.5
 11
-9.97216796875
 21
-7.5
  0
LINE
  8
1
 62
7
 10
-7.5
 20
-1.5
 11
-7.5
 21
-7.5
  0
LINE
  8
1
 62
7
 10
-3
 20
-1.5
 11
-3
 21
-7.5
  0
LINE
  8
1
 62
7
 10
-6
 20
-1.5
 11
-4.5
 21
-7.5
  0
LINE
  8
1
 62
7
 10
-1.5
 20
-7.5
 11
-1.5
 21
-1.5
  0
LINE
  8
1
 62
7
 10
-7.5
 20
-7.5
 11
-1.5
 21
-7.5
  0
SOLID
  8
1
 62
7
 10
-3
 20
-7.5
 11
-2.5
 21
-5.5
 12
-3.5
 22
-5.5
 13
-3.5
 23
-5.5
  0
LINE
  8
1
 62
7
 10
-6.5
 20
-6
 11
-5.5
 21
-6
  0
LINE
  8
1
 62
7
 10
-6
 20
-6
 11
-6
 21
-7.5
  0
LINE
  8
1
 62
7
 10
-1.5
 20
-1.5
 11
-7.5
 21
-1.5
  0
SOLID
  8
1
 62
7
 10
-6
 20
-1.5
 11
-6.05102539063
 21
-3.55908203125
 12
-5.0810546875
 22
-3.34814453125
 13
-5.0810546875
 23
-3.34814453125
  0
LINE
  8
1
 62
7
 10
4.5
 20
-1.5
 11
4.5
 21
-7.5
  0
LINE
  8
1
 62
7
 10
-1.5
 20
-7.5
 11
-1.5
 21
-1.5
  0
LINE
  8
1
 62
7
 10
0
 20
-1.5
 11
0
 21
-7.5
  0
LINE
  8
1
 62
7
 10
3
 20
-1.5
 11
1.5
 21
-7.5
  0
LINE
  8
1
 62
7
 10
4.5
 20
-7.5
 11
-1.5
 21
-7.5
  0
SOLID
  8
1
 62
7
 10
0
 20
-7.5
 11
-0.5
 21
-5.5
 12
0.5
 22
-5.5
 13
0.5
 23
-5.5
  0
LINE
  8
1
 62
7
 10
3.5
 20
-6
 11
2.5
 21
-6
  0
LINE
  8
1
 62
7
 10
3
 20
-6
 11
3
 21
-7.5
  0
LINE
  8
1
 62
7
 10
-1.5
 20
-1.5
 11
4.5
 21
-1.5
  0
SOLID
  8
1
 62
7
 10
3
 20
-1.5
 11
3.05078125
 21
-3.55908203125
 12
2.08081054688
 22
-3.34814453125
 13
2.08081054688
 23
-3.34814453125
  0
LINE
  8
1
 62
7
 10
6.625
 20
-2
 11
6.625
 21
-4
  0
ARC
  8
1
 62
7
 10
5.875
 20
-3
 40
1.25
 50
306
 51
53
  0
LINE
  8
1
 62
7
 10
6.625
 20
-2.625
 11
4.5
 21
-2.625
  0
LINE
  8
1
 62
7
 10
6.625
 20
-3.375
 11
4.5
 21
-3.375
  0
LINE
  8
1
 62
7
 10
7.5
 20
-7.5
 11
7.5
 21
-4.5
  0
LINE
  8
1
 62
7
 10
4.5
 20
-4.5
 11
7.5
 21
-4.5
  0
LINE
  8
1
 62
7
 10
7.5
 20
-7.5
 11
4.5
 21
-7.5
  0
LINE
  8
1
 62
7
 10
5
 20
-4.5
 11
7
 21
-7.5
  0
ENDBLK
  8
0
  0
BLOCK
  8
0
  2
0002O30
 70
0
 10
0
 20
0
  0
ENDBLK
  8
0
  0
BLOCK
  8
0
  2
0002O33
 70
0
 10
0
 20
0
  0
LINE
  8
1
 62
7
 10
-10.4721679688
 20
-7.5
 11
-10.4721679688
 21
-4.5
  0
LINE
  8
1
 62
7
 10
-7.47216796875
 20
-4.5
 11
-10.4721679688
 21
-4.5
  0
LINE
  8
1
 62
7
 10
-10.4721679688
 20
-7.5
 11
-7.47216796875
 21
-7.5
  0
LINE
  8
1
 62
7
 10
-7.97216796875
 20
-4.5
 11
-9.97216796875
 21
-7.5
  0
LINE
  8
1
 62
7
 10
-7.5
 20
-7.5
 11
-1.5
 21
-7.5
  0
LINE
  8
1
 62
7
 10
-1.5
 20
-7.5
 11
-1.5
 21
-1.5
  0
LINE
  8
1
 62
7
 10
-1.5
 20
-1.5
 11
-7.5
 21
-1.5
  0
LINE
  8
1
 62
7
 10
-7.5
 20
-1.5
 11
-7.5
 21
-7.5
  0
LINE
  8
1
 62
7
 10
-3.5
 20
-6
 11
-2.5
 21
-6
  0
LINE
  8
1
 62
7
 10
-3
 20
-6
 11
-3
 21
-7.5
  0
SOLID
  8
1
 62
7
 10
-6
 20
-1.5
 11
-6.5
 21
-3.5
 12
-5.5
 22
-3.5
 13
-5.5
 23
-3.5
  0
LINE
  8
1
 62
7
 10
-6
 20
-1.5
 11
-6
 21
-7.5
  0
LINE
  8
1
 62
7
 10
3
 20
-7.5
 11
0
 21
-1.5
  0
SOLID
  8
1
 62
7
 10
3
 20
-7.5
 11
2.54956054688
 21
-5.48974609375
 12
1.65966796875
 22
-5.9296875
 13
1.65966796875
 23
-5.9296875
  0
LINE
  8
1
 62
7
 10
-1.5
 20
-7.5
 11
4.5
 21
-7.5
  0
LINE
  8
1
 62
7
 10
4.5
 20
-7.5
 11
4.5
 21
-1.5
  0
LINE
  8
1
 62
7
 10
4.5
 20
-1.5
 11
-1.5
 21
-1.5
  0
LINE
  8
1
 62
7
 10
-1.5
 20
-1.5
 11
-1.5
 21
-7.5
  0
LINE
  8
1
 62
7
 10
-0.5
 20
-6
 11
0.5
 21
-6
  0
LINE
  8
1
 62
7
 10
0
 20
-6
 11
0
 21
-7.5
  0
LINE
  8
1
 62
7
 10
7
 20
-4.5
 11
6.75
 21
-3
  0
LINE
  8
1
 62
7
 10
6.75
 20
-3
 11
6.25
 21
-6
  0
LINE
  8
1
 62
7
 10
6.25
 20
-6
 11
5.75
 21
-3
  0
LINE
  8
1
 62
7
 10
5.75
 20
-3
 11
5.25
 21
-6
  0
LINE
  8
1
 62
7
 10
5.25
 20
-6
 11
4.75
 21
-3
  0
LINE
  8
1
 62
7
 10
4.75
 20
-3
 11
4.5
 21
-4.5
  0
ENDBLK
  8
0
  0
BLOCK
  8
0
  2
0002O43
 70
0
 10
0
 20
0
  0
ENDBLK
  8
0
  0
BLOCK
  8
0
  2
0002O47
 70
0
 10
0
 20
0
  0
ENDBLK
  8
0
  0
BLOCK
  8
0
  2
0002O49
 70
0
 10
0
 20
0
  0
ENDBLK
  8
0
  0
BLOCK
  8
0
  2
0002O50
 70
0
 10
0
 20
0
  0
ENDBLK
  8
0
  0
BLOCK
  8
0
  2
0002O51
 70
0
 10
0
 20
0
  0
ENDBLK
  8
0
  0
BLOCK
  8
0
  2
0002O53
 70
0
 10
0
 20
0
  0
ENDBLK
  8
0
  0
BLOCK
  8
0
  2
0002O57
 70
0
 10
0
 20
0
  0
ENDBLK
  8
0
  0
BLOCK
  8
0
  2
0002O58
 70
0
 10
0
 20
0
  0
ENDBLK
  8
0
  0
BLOCK
  8
0
  2
0002O59
 70
0
 10
0
 20
0
  0
ENDBLK
  8
0
  0
BLOCK
  8
0
  2
0002O60
 70
0
 10
0
 20
0
  0
ENDBLK
  8
0
  0
BLOCK
  8
0
  2
0002O61
 70
0
 10
0
 20
0
  0
ENDBLK
  8
0
  0
BLOCK
  8
0
  2
0002O62
 70
0
 10
0
 20
0
  0
ENDBLK
  8
0
  0
ENDSEC
  0
SECTION
  2
ENTITIES
  0
POLYLINE
  8
LINES
 62
7
 66
1
  0
VERTEX
  8
LINES
 62
7
 10
172.75
 20
86.75
  0
VERTEX
  8
LINES
 62
7
 10
172.75
 20
80.75
  0
VERTEX
  8
LINES
 62
7
 10
178.75
 20
80.75
  0
VERTEX
  8
LINES
 62
7
 10
178.75
 20
70.25
  0
SEQEND
  8
1
  0
POLYLINE
  8
LINES
 62
7
 66
1
  0
VERTEX
  8
LINES
 62
7
 10
186.25
 20
86.75
  0
VERTEX
  8
LINES
 62
7
 10
186.25
 20
80.75
  0
VERTEX
  8
LINES
 62
7
 10
181.75
 20
80.75
  0
VERTEX
  8
LINES
 62
7
 10
181.75
 20
70.25
  0
SEQEND
  8
1
  0
POLYLINE
  8
LINES
 62
7
 66
1
  0
VERTEX
  8
LINES
 62
7
 10
222.25
 20
86.75
  0
VERTEX
  8
LINES
 62
7
 10
222.25
 20
80.75
  0
VERTEX
  8
LINES
 62
7
 10
228.25
 20
80.75
  0
VERTEX
  8
LINES
 62
7
 10
228.25
 20
70.25
  0
SEQEND
  8
1
  0
POLYLINE
  8
LINES
 62
7
 66
1
  0
VERTEX
  8
LINES
 62
7
 10
235.75
 20
86.75
  0
VERTEX
  8
LINES
 62
7
 10
235.75
 20
80.75
  0
VERTEX
  8
LINES
 62
7
 10
231.25
 20
80.75
  0
VERTEX
  8
LINES
 62
7
 10
231.25
 20
70.25
  0
SEQEND
  8
1
  0
POLYLINE
  8
LINES
 62
7
 66
1
  0
VERTEX
  8
LINES
 62
7
 10
180.25
 20
61.25
  0
VERTEX
  8
LINES
 62
7
 10
180.25
 20
47.75
  0
VERTEX
  8
LINES
 62
7
 10
180.25
 20
47.75
  0
VERTEX
  8
LINES
 62
7
 10
180.25
 20
32.75
  0
SEQEND
  8
1
  0
POLYLINE
  8
LINES
 62
7
 66
1
  0
VERTEX
  8
LINES
 62
7
 10
229.75
 20
61.25
  0
VERTEX
  8
LINES
 62
7
 10
229.75
 20
32.75
  0
VERTEX
  8
LINES
 62
7
 10
180.25
 20
32.75
  0
SEQEND
  8
1
  0
POLYLINE
  8
LINES
 62
7
 66
1
  0
VERTEX
  8
LINES
 62
7
 10
120.25
 20
31.25
  0
VERTEX
  8
LINES
 62
7
 10
115.75
 20
31.25
  0
VERTEX
  8
LINES
 62
7
 10
115.75
 20
31.25
  0
VERTEX
  8
LINES
 62
7
 10
111.25
 20
31.25
  0
SEQEND
  8
1
  0
POLYLINE
  8
LINES
 62
7
 66
1
  0
VERTEX
  8
LINES
 62
7
 10
102.25
 20
31.25
  0
VERTEX
  8
LINES
 62
7
 10
93.25
 20
31.25
  0
VERTEX
  8
LINES
 62
7
 10
93.25
 20
31.25
  0
VERTEX
  8
LINES
 62
7
 10
84.25
 20
31.25
  0
SEQEND
  8
1
  0
POLYLINE
  8
LINES
 62
7
 66
1
  0
VERTEX
  8
LINES
 62
7
 10
180.25
 20
32.75
  0
VERTEX
  8
LINES
 62
7
 10
159.25
 20
32.75
  0
VERTEX
  8
LINES
 62
7
 10
159.25
 20
32.75
  0
SEQEND
  8
1
  0
POLYLINE
  8
LINES
 62
7
 66
1
  0
VERTEX
  8
LINES
 62
7
 10
160.75
 20
23.75
  0
VERTEX
  8
LINES
 62
7
 10
159.25
 20
23.75
  0
VERTEX
  8
LINES
 62
7
 10
159.25
 20
32.75
  0
VERTEX
  8
LINES
 62
7
 10
159.25
 20
32.75
  0
SEQEND
  8
1
  0
POLYLINE
  8
LINES
 62
7
 66
1
  0
VERTEX
  8
LINES
 62
7
 10
159.25
 20
32.75
  0
VERTEX
  8
LINES
 62
7
 10
153.25
 20
32.75
  0
VERTEX
  8
LINES
 62
7
 10
153.25
 20
32.75
  0
SEQEND
  8
1
  0
INSERT
  8
1
  2
PAL2DXF
 10
172.75
 20
86.75
  0
INSERT
  8
1
  2
PAL2DXF
 10
222.25
 20
86.75
  0
LINE
  8
1
 62
7
 10
178.75
 20
70.25
 11
178.75
 21
68.75
  0
LINE
  8
1
 62
7
 10
181.75
 20
70.25
 11
181.75
 21
68.75
  0
LINE
  8
1
 62
7
 10
177.75
 20
62.75
 11
178.75
 21
61
  0
LINE
  8
1
 62
7
 10
179.75
 20
62.75
 11
178.75
 21
61
  0
LINE
  8
1
 62
7
 10
177.75
 20
62.75
 11
179.75
 21
62.75
  0
LINE
  8
1
 62
7
 10
180.25
 20
61.25
 11
180.25
 21
62.75
  0
LINE
  8
1
 62
7
 10
180.75
 20
62.75
 11
181.75
 21
61
  0
LINE
  8
1
 62
7
 10
182.75
 20
62.75
 11
181.75
 21
61
  0
LINE
  8
1
 62
7
 10
180.75
 20
62.75
 11
182.75
 21
62.75
  0
TEXT
  8
1
 62
7
 40
2
  1
Q0.3
  7
STANDARD
 72
2
 10
165.777832031
 20
63
 11
167.027832031
 21
63
  0
TEXT
  8
1
 62
7
 40
2
  1
Q0.4
  7
STANDARD
 10
187.5
 20
63
  0
INSERT
  8
1
  2
0002O6
 10
178.75
 20
70.25
  0
LINE
  8
1
 62
7
 10
228.25
 20
70.25
 11
228.25
 21
68.75
  0
LINE
  8
1
 62
7
 10
231.25
 20
70.25
 11
231.25
 21
68.75
  0
LINE
  8
1
 62
7
 10
227.25
 20
62.75
 11
228.25
 21
61
  0
LINE
  8
1
 62
7
 10
229.25
 20
62.75
 11
228.25
 21
61
  0
LINE
  8
1
 62
7
 10
227.25
 20
62.75
 11
229.25
 21
62.75
  0
LINE
  8
1
 62
7
 10
229.75
 20
61.25
 11
229.75
 21
62.75
  0
LINE
  8
1
 62
7
 10
230.25
 20
62.75
 11
231.25
 21
61
  0
LINE
  8
1
 62
7
 10
232.25
 20
62.75
 11
231.25
 21
61
  0
LINE
  8
1
 62
7
 10
230.25
 20
62.75
 11
232.25
 21
62.75
  0
TEXT
  8
1
 62
7
 40
2
  1
Q0.5
  7
STANDARD
 72
2
 10
215.277832031
 20
63
 11
216.527832031
 21
63
  0
TEXT
  8
1
 62
7
 40
2
  1
Q0.6
  7
STANDARD
 10
237
 20
63
  0
INSERT
  8
1
  2
0002O18
 10
228.25
 20
70.25
  0
INSERT
  8
1
  2
PRV
 10
120.25
 20
31.25
  0
LINE
  8
1
 62
7
 10
111.25
 20
31.25
 11
109.75
 21
31.25
  0
LINE
  8
1
 62
7
 10
102.25
 20
31.25
 11
103.75
 21
31.25
  0
LINE
  8
1
 62
7
 10
103.75
 20
29.25
 11
102
 21
28.25
  0
LINE
  8
1
 62
7
 10
103.75
 20
27.25
 11
102
 21
28.25
  0
LINE
  8
1
 62
7
 10
103.75
 20
29.25
 11
103.75
 21
27.25
  0
TEXT
  8
1
 62
7
 40
2
  1
Q0.2
  7
STANDARD
 72
2
 10
104
 20
44.2221679688
 11
104
 21
42.9721679688
 50
270
  0
INSERT
  8
1
  2
0002O33
 10
111.25
 20
31.25
 50
270
  0
INSERT
  8
1
  2
TRICON
 10
181.5
 20
31.5
  0
INSERT
  8
1
  2
PPE1
 10
84.25
 20
31.25
 50
270
  0
TEXT
  8
1
 62
7
 40
2
  1
I0.6
  7
STANDARD
 72
1
 10
173.425292969
 20
98.625
 11
174.000244141
 21
98.625
  0
LINE
  8
1
 62
7
 10
174.000244141
 20
95.625
 11
174.000244141
 21
94.625
  0
TEXT
  8
1
 62
7
 40
2
  1
I0.7
  7
STANDARD
 72
1
 10
186.925292969
 20
98.625
 11
187.500244141
 21
98.625
  0
LINE
  8
1
 62
7
 10
187.500244141
 20
95.625
 11
187.500244141
 21
94.625
  0
TEXT
  8
1
 62
7
 40
2
  1
I0.8
  7
STANDARD
 72
1
 10
222.925292969
 20
98.625
 11
223.500244141
 21
98.625
  0
LINE
  8
1
 62
7
 10
223.500244141
 20
95.625
 11
223.500244141
 21
94.625
  0
TEXT
  8
1
 62
7
 40
2
  1
I0.9
  7
STANDARD
 72
1
 10
236.425292969
 20
98.625
 11
237.000244141
 21
98.625
  0
LINE
  8
1
 62
7
 10
237.000244141
 20
95.625
 11
237.000244141
 21
94.625
  0
TEXT
  8
1
 62
7
 40
2
  1
I0.10
  7
STANDARD
 10
175.749755859
 20
22.5
  0
INSERT
  8
1
  2
PSW1
 10
160.75
 20
23.75
  0
INSERT
  8
1
  2
TRICON
 10
160.5
 20
31.5
  0
TEXT
  8
1
 62
7
 40
2
  1
Cyl A
  7
STANDARD
 72
1
 10
180.032226563
 20
103.297851563
 11
180.594726563
 21
103.297851563
  0
TEXT
  8
1
 62
7
 40
2
  1
Cyl B
  7
STANDARD
 72
1
 10
229.60546875
 20
103.224609375
 11
230.16796875
 21
103.224609375
  0
TEXT
  8
1
 62
7
 40
2
  1
Valve A
  7
STANDARD
 72
1
 10
171.459472656
 20
54.7802734375
 11
172.296875
 21
54.7802734375
  0
TEXT
  8
1
 62
7
 40
2
  1
Valve B
  7
STANDARD
 72
1
 10
222.411132813
 20
55.0581054688
 11
223.248535156
 21
55.0581054688
  0
TEXT
  8
1
 62
7
 40
2
  1
Pressure Sensor
  7
STANDARD
 72
1
 10
171.784667969
 20
15.2924804688
 11
173.659667969
 21
15.2924804688
  0
TEXT
  8
1
 62
7
 40
2
  1
Cutoff Valve
  7
STANDARD
 72
1
 10
107.065429688
 20
17.9389648438
 11
108.527832031
 21
17.9389648438
  0
ENDSEC
  0
EOF
